<?xml version="1.0" encoding="UTF-8"?>
<svg id="a" xmlns="http://www.w3.org/2000/svg" viewBox="0 0 1920 658">
    <rect width="1920" height="658" style="fill:#eaad54;" />
    <g>
        <path
            d="M1883.16,661.19l-574.42,114.51c-11.25,2.24-21.85-4.83-24.09-16.08L1137.31,20.5c-2.24-11.25,4.83-21.85,16.08-24.09l574.42-114.51c11.25-2.24,21.85,4.83,24.09,16.08l147.35,739.12c2.24,11.25-4.83,21.85-16.08,24.09h0Zm-562.35,70.34l534.25-106.5L1715.73-73.93,1181.48,32.57l139.34,698.95Zm0,0"
            style="fill:#eac288;" />
        <path
            d="M1599.06,241.69c-3.21,.64-6.99,.56-10.53-.41l-91.72-30.58-72.98,63.41c-5.31,4.82-12.94,6.34-20.09,4-7.23-2.74-12.13-8.44-13.57-15.67l-56.05-281.19c-2.24-11.25,4.83-21.85,16.08-24.09l184.78-36.84c11.25-2.24,21.84,4.83,24.08,16.08l56.05,281.19c1.44,7.23-.89,14.38-6.6,19.27-2.81,2.65-5.87,4.09-9.48,4.81h0Zm-110.81-73.97c3.21-.64,6.99-.56,10.52,.41l69.31,22.94-45.16-226.55-144.61,28.83,45.16,226.55,55.22-47.76c2.89-2.25,6.35-3.77,9.56-4.41h0Zm207.11,221.84l-321.36,64.06c-11.25,2.24-21.85-4.83-24.09-16.08s4.83-21.85,16.08-24.09l321.36-64.06c11.25-2.24,21.85,4.83,24.09,16.08,2.24,11.25-4.83,21.85-16.08,24.09h0Zm-139.86,136.47l-160.68,32.03c-11.25,2.24-21.85-4.83-24.09-16.08s4.83-21.85,16.08-24.09l160.68-32.03c11.25-2.24,21.85,4.83,24.09,16.08,2.24,11.25-4.83,21.85-16.08,24.09h0Zm168.24,79.23c-43.39,8.65-85.3-19.33-93.95-62.72-8.65-43.38,19.33-85.3,62.71-93.94,43.38-8.65,85.3,19.33,93.94,62.71,8.65,43.39-19.33,85.3-62.71,93.95h0Zm-23.22-116.49c-20.89,4.16-34.72,24.88-30.56,45.77s24.88,34.72,45.77,30.56c20.89-4.16,34.72-24.88,30.55-45.77-4.16-20.89-24.88-34.72-45.77-30.55h0Zm0,0"
            style="fill:#eac288;" />
    </g>
</svg>